<?xml version="1.0" encoding="UTF-8" standalone="no"?>
<!-- Created with Inkscape (http://www.inkscape.org/) -->

<svg
   width="461.7421"
   height="457.99771"
   viewBox="0 0 461.7421 457.99771"
   version="1.1"
   id="svg5"
   sodipodi:docname="bsoup.svg"
   inkscape:version="1.1.2 (0a00cf5339, 2022-02-04)"
   xmlns:inkscape="http://www.inkscape.org/namespaces/inkscape"
   xmlns:sodipodi="http://sodipodi.sourceforge.net/DTD/sodipodi-0.dtd"
   xmlns="http://www.w3.org/2000/svg"
   xmlns:svg="http://www.w3.org/2000/svg">
  <sodipodi:namedview
     id="namedview7"
     pagecolor="#ffffff"
     bordercolor="#666666"
     borderopacity="1.0"
     inkscape:pageshadow="2"
     inkscape:pageopacity="0.0"
     inkscape:pagecheckerboard="0"
     inkscape:document-units="px"
     showgrid="false"
     inkscape:snap-global="false"
     inkscape:zoom="1.2617187"
     inkscape:cx="364.58204"
     inkscape:cy="196.16099"
     inkscape:window-width="1920"
     inkscape:window-height="1044"
     inkscape:window-x="1920"
     inkscape:window-y="0"
     inkscape:window-maximized="1"
     inkscape:current-layer="g928"
     fit-margin-top="0"
     fit-margin-left="0"
     fit-margin-right="0"
     fit-margin-bottom="0" />
  <defs
     id="defs2" />
  <g
     inkscape:label="Layer 1"
     inkscape:groupmode="layer"
     id="layer1"
     transform="translate(-25.12896,-27.001141)">
    <g
       inkscape:label="Layer 1"
       id="layer1-1"
       transform="translate(-666.76814,-28.693399)">
      <g
         id="g928"
         transform="translate(645.88293,21.199158)">
        <rect
           style="fill:#06c312;fill-opacity:0;stroke:none;stroke-width:21.819;stroke-linecap:round;stroke-miterlimit:4;stroke-dasharray:none;stroke-opacity:0;paint-order:markers fill stroke"
           id="rect9347"
           width="575.58136"
           height="585.25824"
           x="-32.966393"
           y="-28.283724" />
        <path
           style="fill:#000000;fill-opacity:1;stroke-width:0.819316"
           d="m 342.13706,491.30352 c -29.21395,-18.0292 -60.42879,-38.97107 -96.23007,-37.65718 -27.96601,1.07282 -56.49961,-4.91912 -79.13625,-22.14686 -22.7193,-13.32986 -43.49095,-32.31259 -53.05749,-57.37679 C 100.34495,359.89955 72.942897,355.98539 78.236007,330.19338 70.782536,324.36315 48.433972,323.07462 48.018135,304.18315 41.475316,259.86565 50.899189,213.2483 71.712324,173.6926 84.198,157.23864 102.99525,133.59516 125.4502,136.1993 c 16.90212,2.67099 18.46636,36.89937 26.26254,35.84129 12.52998,-14.39271 28.67256,-25.00728 47.88741,-27.33886 28.09071,-6.28439 57.62777,-11.80056 80.27235,-31.04159 19.4751,-15.232272 33.25058,-38.340892 58.05672,-46.00666 11.14577,-6.118048 3.87514,-29.676034 22.38377,-32.275535 17.5472,-3.71853 36.27126,-1.234872 45.86085,14.184638 21.53124,-4.079098 50.0991,-9.832206 65.58383,10.394933 10.65764,13.450461 -2.39384,33.892052 -2.06201,46.009864 26.81833,-4.02553 32.00937,27.59217 12.98719,41.26043 -18.81856,15.42269 -35.67541,33.80959 -44.0679,57.03496 -15.20722,31.72902 -19.12394,67.57798 -34.25008,99.25463 0.59044,12.92634 18.21141,29.42757 31.27498,28.16386 6.83224,-6.61896 39.27113,-24.1671 37.98941,-11.23338 -12.62554,8.35846 -26.57958,27.10273 -0.38985,22.22736 10.84992,-3.97462 34.54221,-1.74491 13.62671,9.72789 -17.175,3.01922 -17.35529,21.69508 1.81186,17.95307 22.82979,-4.63539 22.87444,20.58136 0.56003,17.31627 -21.60598,-0.66753 -43.50087,19.6012 -64.05595,8.03539 -21.44744,-7.7761 -46.08114,-11.1312 -63.41406,-29.40862 -12.0252,-12.5372 -24.99937,10.05924 -38.85378,10.86355 6.90386,12.3971 -6.17664,32.73283 16.42629,26.28137 10.37758,0.18 49.96061,9.50555 20.3978,13.18643 -7.27994,2.06623 -45.32902,12.28154 -18.42137,11.90108 14.64974,3.33265 45.82692,20.03333 41.68623,32.79318 -19.97535,-8.48651 -42.27492,-14.85948 -64.24927,-11.33205 9.81175,11.52646 24.27643,19.72789 30.18794,33.86177 1.62856,7.18428 1.29094,11.27236 -6.80478,7.44895 z M 327.53122,370.3761 c 14.49869,-3.80007 27.7861,-14.7003 11.01616,-26.23108 -13.2049,-20.07354 -17.13256,-43.95959 -17.33553,-67.5417 -5.58895,7.71164 -19.81408,28.54556 -4.50146,8.8823 6.86767,1.18475 -19.15713,23.68599 -28.43352,25.58135 -12.16866,2.54711 -28.6182,13.66075 -39.01265,7.71548 11.66773,0.31819 25.58974,-6.05685 6.15584,-2.36168 -8.76172,1.32538 -30.81915,2.30072 -9.71122,5.87661 24.77877,8.03362 49.83986,18.11654 66.89495,38.81632 5.06823,3.67568 6.87482,15.07859 14.92743,9.2624 z m 81.26318,-87.9058 c 12.56212,-40.64479 21.12391,-84.7579 49.10266,-118.20319 13.45122,-11.66544 52.13576,-41.20435 19.62402,-53.46773 -29.35036,-1.32293 24.9683,0.58703 8.00543,18.94844 -12.20649,19.11025 -34.93376,28.28666 -57.07727,27.30656 -10.18167,-1.77817 -41.57195,10.05839 -34.63127,11.21055 17.09288,-11.53613 -11.4508,15.31868 -13.04727,22.80342 -5.91535,9.24666 -16.09141,35.45187 -13.27551,15.30985 -8.38497,7.30265 -0.9705,19.49688 6.65928,24.79792 19.55988,15.63907 26.9628,41.01776 28.81152,65.0719 3.555,-3.22535 3.7315,-9.58658 5.82841,-13.77772 z m 45.32078,-133.37867 c 14.53827,-2.40364 44.90985,-32.77136 15.46095,-34.04813 -12.80786,-1.43943 -19.68332,38.96634 -19.29054,35.2817 z m 6.79009,-20.66795 c 10.1834,-10.4862 20.30528,1.29233 0,0 z M 394.48824,97.173072 c 2.14527,-10.24119 27.29484,-24.408578 4.2837,-12.690628 -13.11356,6.391711 -6.251,39.819256 -4.2837,12.690628 z m 25.11662,5.999718 c 1.37166,0.60782 -19.8828,-1.58183 -4.10643,3.60642 l 1.51945,-0.27045 z"
           id="path890" />
      </g>
    </g>
  </g>
</svg>
